<svg width="20" height="20" viewBox="0 0 20 20" fill="none" xmlns="http://www.w3.org/2000/svg">
<g id="vuesax/bold/chart">
<g id="chart">
<path id="Vector" d="M18.3334 18.3333H1.66675C1.32508 18.3333 1.04175 18.0499 1.04175 17.7083C1.04175 17.3666 1.32508 17.0833 1.66675 17.0833H18.3334C18.6751 17.0833 18.9584 17.3666 18.9584 17.7083C18.9584 18.0499 18.6751 18.3333 18.3334 18.3333Z" fill="#707084"/>
<path id="Vector_2" d="M11.375 17.8334H8.625V3.33341C8.625 2.93076 8.70934 2.64176 8.84817 2.46283C8.96918 2.30686 9.18378 2.16675 9.625 2.16675H10.375C10.8162 2.16675 11.0308 2.30686 11.1518 2.46283C11.2907 2.64176 11.375 2.93076 11.375 3.33341V17.8334Z" fill="#707084" stroke="#707084"/>
<path id="Vector_3" d="M2.5 8.33341V18.3334H5.83333V8.33341C5.83333 7.41675 5.5 6.66675 4.5 6.66675H3.83333C2.83333 6.66675 2.5 7.41675 2.5 8.33341Z" fill="#707084"/>
<path id="Vector_4" d="M14.1667 12.4999V18.3333H17.5001V12.4999C17.5001 11.5833 17.1667 10.8333 16.1667 10.8333H15.5001C14.5001 10.8333 14.1667 11.5833 14.1667 12.4999Z" fill="#707084"/>
</g>
</g>
</svg>
