<svg width="238" height="238" viewBox="0 0 238 238" fill="none" xmlns="http://www.w3.org/2000/svg">
<g id="Group 2" filter="url(#filter0_d_2051_34655)">
<path id="Ellipse 99" d="M127.025 8.667C123.411 8.46497 120.5 11.4182 120.5 15V36C120.5 39.5997 123.418 42.4502 126.954 42.7397C139.536 43.7699 150.592 48.103 161.501 55.3926C174.081 63.7985 183.887 75.7462 189.677 89.7247C195.467 103.703 196.982 119.085 194.03 133.924C191.078 148.764 183.792 162.395 173.094 173.094C162.395 183.792 148.764 191.078 133.924 194.03C119.085 196.982 103.703 195.467 89.7247 189.677C75.7462 183.887 63.7985 174.081 55.3926 161.501C48.103 150.592 43.7699 139.536 42.7397 126.954C42.4502 123.418 39.5997 120.5 36 120.5H15C11.4182 120.5 8.46497 123.411 8.667 127.025C9.753 146.451 16.1141 163.915 27.1226 180.391C39.2645 198.562 56.5222 212.725 76.7135 221.089C96.9047 229.452 119.123 231.64 140.557 227.377C161.992 223.113 181.682 212.589 197.135 197.135C212.589 181.682 223.113 161.992 227.377 140.557C231.64 119.123 229.452 96.9047 221.089 76.7135C212.725 56.5222 198.562 39.2645 180.391 27.1226C163.915 16.1141 146.451 9.753 127.025 8.667Z" fill="#619BFF" stroke="white"/>
<g id="Ellipse 100">
<g filter="url(#filter1_i_2051_34655)">
<path d="M121 15C121 11.6863 123.689 8.98126 126.997 9.16622C146.324 10.2467 163.703 16.5737 180.113 27.5383C198.202 39.6253 212.301 56.805 220.627 76.9048C228.952 97.0047 231.131 119.122 226.886 140.46C222.642 161.798 212.166 181.398 196.782 196.782C181.398 212.166 161.798 222.642 140.46 226.886C119.122 231.131 97.0047 228.952 76.9048 220.627C56.805 212.301 39.6253 198.202 27.5383 180.113C16.5737 163.703 10.2467 146.324 9.16622 126.997C8.98126 123.689 11.6863 121 15 121H36C39.3137 121 41.9709 123.692 42.2414 126.995C43.2796 139.675 47.6485 150.811 54.9768 161.779C63.4377 174.441 75.4635 184.311 89.5334 190.139C103.603 195.967 119.085 197.492 134.022 194.52C148.958 191.549 162.679 184.216 173.447 173.447C184.216 162.679 191.549 148.958 194.52 134.022C197.492 119.085 195.967 103.603 190.139 89.5334C184.311 75.4635 174.441 63.4377 161.779 54.9768C150.811 47.6485 139.675 43.2796 126.995 42.2414C123.692 41.9709 121 39.3137 121 36V15Z" fill="#619BFF"/>
</g>
<path d="M121.5 15C121.5 11.9544 123.966 9.49754 126.969 9.66544C146.197 10.7404 163.491 17.0334 179.835 27.9541C197.842 39.9861 211.877 57.0877 220.165 77.0962C228.453 97.1047 230.621 119.121 226.396 140.362C222.171 161.603 211.742 181.114 196.428 196.428C181.114 211.742 161.603 222.171 140.362 226.396C119.121 230.621 97.1047 228.453 77.0962 220.165C57.0877 211.877 39.9861 197.842 27.9541 179.835C17.0334 163.491 10.7404 146.197 9.66544 126.969C9.49754 123.966 11.9544 121.5 15 121.5H36C39.0277 121.5 41.4917 123.966 41.743 127.035C42.7894 139.815 47.1939 151.031 54.5611 162.057C63.0769 174.801 75.1808 184.735 89.342 190.601C103.503 196.466 119.086 198.001 134.119 195.011C149.153 192.021 162.962 184.639 173.801 173.801C184.639 162.962 192.02 149.153 195.011 134.119C198.001 119.086 196.466 103.503 190.601 89.342C184.735 75.1808 174.802 63.0769 162.057 54.5611C151.031 47.1939 139.815 42.7894 127.035 41.743C123.966 41.4917 121.5 39.0277 121.5 36V15Z" stroke="#619BFF"/>
</g>
</g>
<defs>
<filter id="filter0_d_2051_34655" x="0.157227" y="0.157227" width="237.843" height="237.843" filterUnits="userSpaceOnUse" color-interpolation-filters="sRGB">
<feFlood flood-opacity="0" result="BackgroundImageFix"/>
<feColorMatrix in="SourceAlpha" type="matrix" values="0 0 0 0 0 0 0 0 0 0 0 0 0 0 0 0 0 0 127 0" result="hardAlpha"/>
<feOffset/>
<feGaussianBlur stdDeviation="4"/>
<feComposite in2="hardAlpha" operator="out"/>
<feColorMatrix type="matrix" values="0 0 0 0 0.380392 0 0 0 0 0.607843 0 0 0 0 1 0 0 0 0.3 0"/>
<feBlend mode="normal" in2="BackgroundImageFix" result="effect1_dropShadow_2051_34655"/>
<feBlend mode="normal" in="SourceGraphic" in2="effect1_dropShadow_2051_34655" result="shape"/>
</filter>
<filter id="filter1_i_2051_34655" x="9.15723" y="9.15723" width="219.843" height="219.843" filterUnits="userSpaceOnUse" color-interpolation-filters="sRGB">
<feFlood flood-opacity="0" result="BackgroundImageFix"/>
<feBlend mode="normal" in="SourceGraphic" in2="BackgroundImageFix" result="shape"/>
<feColorMatrix in="SourceAlpha" type="matrix" values="0 0 0 0 0 0 0 0 0 0 0 0 0 0 0 0 0 0 127 0" result="hardAlpha"/>
<feOffset/>
<feGaussianBlur stdDeviation="13.95"/>
<feComposite in2="hardAlpha" operator="arithmetic" k2="-1" k3="1"/>
<feColorMatrix type="matrix" values="0 0 0 0 1 0 0 0 0 1 0 0 0 0 1 0 0 0 0.2 0"/>
<feBlend mode="normal" in2="shape" result="effect1_innerShadow_2051_34655"/>
</filter>
</defs>
</svg>
