<svg width="20" height="20" viewBox="0 0 20 20" fill="none" xmlns="http://www.w3.org/2000/svg">
<path d="M14.6084 6.47508C14.55 6.46675 14.4917 6.46675 14.4334 6.47508C13.1417 6.43341 12.1167 5.37508 12.1167 4.07508C12.1167 2.75008 13.1917 1.66675 14.525 1.66675C15.85 1.66675 16.9334 2.74175 16.9334 4.07508C16.925 5.37508 15.9 6.43341 14.6084 6.47508Z" fill="#7B61FF"/>
<path d="M17.3252 12.2501C16.3918 12.8751 15.0835 13.1084 13.8752 12.9501C14.1918 12.2668 14.3585 11.5084 14.3668 10.7084C14.3668 9.87509 14.1835 9.08343 13.8335 8.39176C15.0668 8.22509 16.3752 8.45843 17.3168 9.08343C18.6335 9.95009 18.6335 11.3751 17.3252 12.2501Z" fill="#7B61FF"/>
<path d="M5.36647 6.47508C5.4248 6.46675 5.48314 6.46675 5.54147 6.47508C6.83314 6.43341 7.85814 5.37508 7.85814 4.07508C7.85814 2.74175 6.78314 1.66675 5.4498 1.66675C4.1248 1.66675 3.0498 2.74175 3.0498 4.07508C3.0498 5.37508 4.0748 6.43341 5.36647 6.47508Z" fill="#7B61FF"/>
<path d="M5.45843 10.7083C5.45843 11.5167 5.63343 12.2833 5.9501 12.975C4.7751 13.1 3.5501 12.85 2.6501 12.2583C1.33343 11.3833 1.33343 9.95834 2.6501 9.08334C3.54176 8.48334 4.8001 8.24167 5.98343 8.37501C5.64176 9.07501 5.45843 9.86667 5.45843 10.7083Z" fill="#7B61FF"/>
<path d="M10.1 13.225C10.0333 13.2167 9.95833 13.2167 9.88333 13.225C8.35 13.175 7.125 11.9167 7.125 10.3667C7.13333 8.78333 8.40833 7.5 10 7.5C11.5833 7.5 12.8667 8.78333 12.8667 10.3667C12.8583 11.9167 11.6417 13.175 10.1 13.225Z" fill="#7B61FF"/>
<path d="M7.3915 14.95C6.13317 15.7916 6.13317 17.175 7.3915 18.0083C8.82484 18.9666 11.1748 18.9666 12.6082 18.0083C13.8665 17.1666 13.8665 15.7833 12.6082 14.95C11.1832 13.9916 8.83317 13.9916 7.3915 14.95Z" fill="#7B61FF"/>
</svg>
